<?xml version="1.0" encoding="utf-8"?>
<svg xmlns="http://www.w3.org/2000/svg" height="256" width="256" viewBox="0 0 256 256">
  <g>
    <path id="path1" transform="rotate(0,128,128) translate(59,81.5672936164349) scale(4.31250205636123,4.31250205636123)  " fill="#000000" d="M7.5870211,7.0031092E-10L11.693005,7.0031092E-10C11.793987,-2.3027997E-07 11.893994,-2.3027997E-07 11.994,0.10003609 12.094006,0.20001145 12.094006,0.30004778 12.094006,0.40099981 11.994,0.70104769 11.893994,1.0020112 11.893994,1.2020228 11.893994,3.0049966 13.697001,4.4070313 16.000008,4.4070313 18.303992,4.4070313 20.106999,3.0049966 20.106999,1.2020228 20.106999,0.90099832 20.005985,0.60101136 20.005985,0.40099981 20.005985,0.30004778 20.005985,0.20001145 20.106999,0.10003609 20.106999,-2.3027997E-07 20.207005,-2.3027997E-07 20.30698,7.0031092E-10L24.412995,7.0031092E-10C24.513001,-2.3027997E-07,24.613983,-2.3027997E-07,24.713989,0.10003609L31.92498,6.4100168C32.024985,6.5099919,32.024985,6.7100036,31.92498,6.8110168L27.016995,10.816987C26.916989,10.917024 26.816982,10.917024 26.716978,10.917024 26.617003,10.917024 26.516997,10.816987 26.415983,10.816987L23.811981,7.7120154 27.016995,20.932987C27.016995,21.032963 27.016995,21.133 26.916989,21.232975 26.816982,21.332951 26.716978,21.332951 26.617003,21.332951L18.303992,21.432987C18.203985,21.432987,18.103003,21.533999,18.103003,21.533999L16.099983,21.533999 14.096995,21.533999C13.996989,21.533999,13.897013,21.533999,13.797007,21.432987L5.4839961,21.332951C5.3840205,21.332951 5.2830074,21.332951 5.1830012,21.232975 4.98302,21.133 4.98302,21.032963 4.98302,20.932987L8.1880037,7.7120154 5.5840017,10.816987C5.4839961,10.917024 5.3840205,10.917024 5.2830074,10.917024 5.1830012,10.917024 5.0829951,10.917024 4.98302,10.816987L0.07500453,6.8110168C-0.02500151,6.7100036,-0.02500151,6.6100285,0.07500453,6.4100168L7.2870032,0.10003609C7.2870032,-2.3027997E-07,7.3870093,-2.3027997E-07,7.5870211,7.0031092E-10z" />
  </g>
</svg>

