<?xml version="1.0" encoding="utf-8"?>
<svg xmlns="http://www.w3.org/2000/svg" height="256" width="256" viewBox="0 0 256 256">
  <g>
    <path id="path1" transform="rotate(0,128,128) translate(101.262500822544,59) scale(4.3125,4.3125)  " fill="#000000" d="M0.49999999,16.899994L12.300024,19.700012 12.4,31.700012 0.6000061,32C0.39999404,32,-5.2263204E-08,31.799988,0,31.700012L0,17C-5.2263204E-08,17,0.30001839,16.899994,0.49999999,16.899994z M7.2000156,0C7.8000222,2.2000122 8.7000161,4 9.700017,6.1000061 10.399999,7.7000122 11.300024,9.5 11.500006,11.200012 11.800024,13.600006 11.000005,16.5 8.3000222,17 7.2000156,17.200012 6.3999968,17.100006 5.3999963,16.700012L5.0000024,16.399994C3.80002,15.700012 2.8999951,14.399994 2.7000137,13.200012 2.3999949,11.5 2.8999951,10.200012 3.8999959,8.8999939 4.7000142,7.7999878 5.8999968,6.7999878 6.3999968,5.5 7.1000095,3.7999878 7.2000156,1.7999878 7.2000156,0z" />
  </g>
</svg>

